<?xml version="1.0" encoding="utf-8"?>
<!-- Generator: Adobe Illustrator 14.0.0, SVG Export Plug-In . SVG Version: 6.00 Build 43363)  -->
<!DOCTYPE svg PUBLIC "-//W3C//DTD SVG 1.1//EN" "http://www.w3.org/Graphics/SVG/1.1/DTD/svg11.dtd">
<svg version="1.1" id="Ebene_1" xmlns="http://www.w3.org/2000/svg" xmlns:xlink="http://www.w3.org/1999/xlink" x="0px" y="0px"
	 width="32px" height="32px" viewBox="0 0 32 32" enable-background="new 0 0 32 32" xml:space="preserve">
<path fill="#666666" d="M25.117,21.883l-4.066-4.066c0.613-1.006,0.968-2.189,0.968-3.455c0-3.676-3.187-6.861-6.862-6.861
	C11.48,7.5,8.5,10.48,8.5,14.156c0,3.677,3.186,6.861,6.861,6.861c1.222,0,2.366-0.33,3.352-0.904l4.088,4.088
	c0.398,0.398,1.05,0.398,1.447,0l1.014-1.014C25.662,22.787,25.518,22.284,25.117,21.883 M10.548,14.156
	c0-2.545,2.063-4.608,4.608-4.608c2.545,0,4.812,2.269,4.812,4.813c0,2.543-2.062,4.609-4.607,4.609
	C12.816,18.971,10.548,16.702,10.548,14.156"/>
</svg>
