<?xml version="1.0" encoding="utf-8"?>
<!-- Generator: Adobe Illustrator 14.0.0, SVG Export Plug-In  -->
<!DOCTYPE svg PUBLIC "-//W3C//DTD SVG 1.1//EN" "http://www.w3.org/Graphics/SVG/1.1/DTD/svg11.dtd" [
	<!ENTITY ns_flows "http://ns.adobe.com/Flows/1.0/">
]>
<svg version="1.1"
	 xmlns="http://www.w3.org/2000/svg" xmlns:xlink="http://www.w3.org/1999/xlink" xmlns:a="http://ns.adobe.com/AdobeSVGViewerExtensions/3.0/"
	 x="0px" y="0px" width="32px" height="32px" viewBox="0 0 32 32" enable-background="new 0 0 32 32" xml:space="preserve">
<defs>
</defs>
<rect fill="none" width="32" height="32"/>
<path fill="#009900" d="M16.13,6.909c-4.971,0-9,4.029-9,9c0,4.971,4.029,9,9,9c4.97,0,9-4.029,9-9
	C25.13,10.938,21.1,6.909,16.13,6.909 M16.13,23.259c-4.06,0-7.35-3.29-7.35-7.35c0-4.06,3.29-7.35,7.35-7.35
	c4.06,0,7.35,3.29,7.35,7.35C23.48,19.969,20.19,23.259,16.13,23.259"/>
<rect x="15.304" y="11.91" fill="#009900" width="1.652" height="7.999"/>
</svg>
