<?xml version="1.0" encoding="utf-8"?>
<!-- Generator: Adobe Illustrator 14.0.0, SVG Export Plug-In . SVG Version: 6.00 Build 43363)  -->
<!DOCTYPE svg PUBLIC "-//W3C//DTD SVG 1.1//EN" "http://www.w3.org/Graphics/SVG/1.1/DTD/svg11.dtd">
<svg version="1.1" id="Ebene_1" xmlns="http://www.w3.org/2000/svg" xmlns:xlink="http://www.w3.org/1999/xlink" x="0px" y="0px"
	 width="32px" height="32px" viewBox="0 0 32 32" enable-background="new 0 0 32 32" xml:space="preserve">
<path fill="#666666" d="M25,14.5H7c-0.829,0-1.5,0.672-1.5,1.5c0,0.829,0.671,1.5,1.5,1.5h18c0.828,0,1.5-0.671,1.5-1.5
	C26.5,15.172,25.828,14.5,25,14.5 M7,11.5h18c0.828,0,1.5-0.671,1.5-1.5c0-0.828-0.672-1.5-1.5-1.5H7c-0.829,0-1.5,0.672-1.5,1.5
	C5.5,10.829,6.171,11.5,7,11.5 M25,20.5H7c-0.829,0-1.5,0.672-1.5,1.5c0,0.829,0.671,1.5,1.5,1.5h18c0.828,0,1.5-0.671,1.5-1.5
	C26.5,21.172,25.828,20.5,25,20.5"/>
</svg>
