<?xml version="1.0" encoding="utf-8"?>
<!-- Generator: Adobe Illustrator 14.0.0, SVG Export Plug-In . SVG Version: 6.00 Build 43363)  -->
<!DOCTYPE svg PUBLIC "-//W3C//DTD SVG 1.1//EN" "http://www.w3.org/Graphics/SVG/1.1/DTD/svg11.dtd">
<svg version="1.1" id="Ebene_1" xmlns="http://www.w3.org/2000/svg" xmlns:xlink="http://www.w3.org/1999/xlink" x="0px" y="0px"
	 width="32px" height="32px" viewBox="0 0 32 32" enable-background="new 0 0 32 32" xml:space="preserve">
<path fill="#666666" d="M9.802,14.042l1.033,9.103C10.89,23.577,12.978,24.998,16,25c3.023-0.002,5.111-1.423,5.166-1.855
	l1.033-9.103c-1.578,0.883-3.938,1.302-6.199,1.302S11.38,14.925,9.802,14.042 M18.968,8.417l-0.804-0.894
	C17.854,7.082,17.516,7,16.857,7h-1.715c-0.658,0-0.995,0.082-1.305,0.523l-0.806,0.894c-2.409,0.421-4.156,1.538-4.156,2.36v0.16
	c0,1.448,3.19,2.625,7.125,2.625c3.936,0,7.125-1.177,7.125-2.625v-0.16C23.125,9.955,21.378,8.838,18.968,8.417 M17.941,10.505
	L16.768,9.25h-1.534l-1.174,1.255h-1.594c0,0,1.747-2.081,1.979-2.362c0.178-0.217,0.36-0.299,0.597-0.299h1.915
	c0.236,0,0.419,0.082,0.598,0.299c0.231,0.281,1.979,2.362,1.979,2.362H17.941z"/>
</svg>
