<?xml version="1.0" encoding="utf-8"?>
<!-- Generator: Adobe Illustrator 16.0.0, SVG Export Plug-In . SVG Version: 6.00 Build 0)  -->
<!DOCTYPE svg PUBLIC "-//W3C//DTD SVG 1.1//EN" "http://www.w3.org/Graphics/SVG/1.1/DTD/svg11.dtd">
<svg version="1.1" id="Layer_1" xmlns="http://www.w3.org/2000/svg" xmlns:xlink="http://www.w3.org/1999/xlink" x="0px" y="0px"
	 width="612px" height="216px" viewBox="0 0 612 216" enable-background="new 0 0 612 216" xml:space="preserve">
<g>
	<g>
		<defs>
			<rect id="SVGID_1_" x="34.093" y="24.367" width="260" height="164"/>
		</defs>
		<clipPath id="SVGID_2_">
			<use xlink:href="#SVGID_1_"  overflow="visible"/>
		</clipPath>
		<g clip-path="url(#SVGID_2_)">
			<defs>
				<polygon id="SVGID_3_" points="37.739,187.945 37.739,27.945 293.741,27.945 293.741,187.945 37.739,187.945 				"/>
			</defs>
			<clipPath id="SVGID_4_">
				<use xlink:href="#SVGID_3_"  overflow="visible"/>
			</clipPath>
			<path clip-path="url(#SVGID_4_)" fill="#E63312" stroke="#E63312" stroke-width="0.2373" stroke-miterlimit="3.8637" d="
				M167.833,155.219c-0.488,2.539-19.965,18.809-48.059,18.809c-34.832,0-65.652-27.637-65.652-65.961
				c0-37.16,30.086-65.717,65.422-65.941c41.5-0.27,67.096,38.543,61.732,42.025c-3.785,2.459-5.77-6.049-13.701-13.701
				c-8.766-10.219-24.152-22.275-48.535-22.275c-42.941,0-60.379,39.896-60.59,59.893c-0.457,43.184,35.289,62.707,59.684,63.395
				C147.403,172.285,166.2,155.418,167.833,155.219L167.833,155.219z"/>
			
				<line clip-path="url(#SVGID_4_)" fill="none" stroke="#000000" stroke-width="0.75" stroke-miterlimit="3.8637" x1="118.661" y1="30.529" x2="118.661" y2="55.826"/>
			
				<line clip-path="url(#SVGID_4_)" fill="none" stroke="#000000" stroke-width="0.75" stroke-miterlimit="3.8637" x1="118.661" y1="161.059" x2="118.661" y2="186.359"/>
			
				<line clip-path="url(#SVGID_4_)" fill="none" stroke="#000000" stroke-width="0.75" stroke-miterlimit="3.8637" x1="39.556" y1="108.066" x2="62.892" y2="108.066"/>
			<path clip-path="url(#SVGID_4_)" d="M173.097,100.229c-5.295,2.916-14.732,7.721-21.205,15.17
				c-5.277,6.078-8.828,15.773-5.172,23.074c3.48,6.953,18.414,6.789,25.99-0.926c2.961-3.016,6.129-6.875,8.797-4.859
				c3.047,2.301-1.055,6.012-2.863,7.699c-8.734,8.176-30.521,14.84-37.486,0.535c-7.906-16.234,7.957-31.379,15.051-37.248
				c3.445-2.844,14.111-8.906,18.963-8.701c2.422,0.1,2.457,2.207,3.117,4.223c0.781,2.359,1.57,4.643-0.953,5.625
				C174.819,105.799,173.226,103.602,173.097,100.229L173.097,100.229z"/>
			<path clip-path="url(#SVGID_4_)" d="M183.241,93.49c2.977-0.604,3.484,2.424,3.883,3.785c0.699,2.354,7.371,39.381,7.875,41.701
				s0.66,3.785-1.512,4.391c-2.168,0.605-3.379-0.102-3.785-3.281c-0.508-4.027-7.664-37.725-8.336-41.498
				C180.964,96.314,180.46,94.297,183.241,93.49L183.241,93.49z"/>
			<path clip-path="url(#SVGID_4_)" fill-rule="evenodd" clip-rule="evenodd" d="M196.569,99.596
				c10.754-5.051,30.188-13.078,33.77-5.299c2.746,5.971-3.77,12.125-6.008,14.135c-4.547,4.092-16.305,9.24-23.777,11.057
				L196.569,99.596L196.569,99.596z M191.718,91.32c3.586-1.008,3.688,3.281,3.688,3.281s16.605-8.084,26.754-8.379
				c8.887-0.264,12.219,3.482,13.832,7.471c1.617,3.984,0.352,11.76-8.836,19.131s-19.031,11.156-25.492,12.621
				c0,0,1.465,8.984,2.172,11.863s0.047,3.941-1.77,4.344s-3.176-0.504-3.785-3.383c-0.605-2.879-7.973-40.844-8.273-42.764
				C189.702,93.594,189.499,91.621,191.718,91.32L191.718,91.32z"/>
		</g>
		<path clip-path="url(#SVGID_2_)" d="M279.382,95.229c-1.789-1.725-4.688,0.439-6.75,1.564c-2.461,1.348-3.645,2.068-5.531,3.201
			c-0.773-5.047-1.43-9.131-1.676-9.951c-0.398-1.365-0.902-4.393-3.883-3.785c-2.781,0.803-2.27,2.824-1.871,5.098
			c0.258,1.467,1,6.322,1.828,11.936c-0.078,0.043-0.137,0.08-0.219,0.125c-8.5,4.891-17.277,7.521-17.543,2.59
			c-0.363-6.922,2.504-11.436,5.188-17.75c0,0,5.379-8.5,0.688-9.498c-3.5-0.375-7.977,10.221-7.977,10.221
			s-7.359,16.082-2.625,22.439c3.879,5.215,10.527,4.609,23.418-1.828c1.031,7.027,2,13.789,2.238,15.68
			c0.41,3.18,1.559,3.609,3.793,3.281c1.863-0.273,2.785-2.367,2.277-4.688c-0.25-1.176-1.434-9.238-2.629-17.215
			c8.32-4.486,6.652-4.037,8.777-5.043C279.382,100.416,281.132,96.916,279.382,95.229L279.382,95.229z"/>
		<path clip-path="url(#SVGID_2_)" fill="#E63312" d="M168.091,166.754c-0.598-2.504,0.514-4.832,3.068-5.52
			c2.43-0.652,4.809,1.266,5.449,3.664c0.836,3.094-0.465,5.082-2.844,5.793c0,0-0.035,0.012-0.094,0.063
			C171.104,171.406,168.733,169.301,168.091,166.754L168.091,166.754z M166.825,167.242c0.867,3.102,3.877,5.074,7.076,4.219
			c2.988-0.805,4.992-3.465,4.066-6.926c-0.82-3.059-4.059-4.988-7.145-4.125C167.88,161.238,165.966,164.043,166.825,167.242
			L166.825,167.242z"/>
		<path clip-path="url(#SVGID_2_)" fill="#E63312" d="M184.39,161.102c0,0-0.117-0.008-0.324,0.047
			c-0.344,0.094-0.918,0.547-1.258,2.539c-0.387,2.32-0.23,5.109-0.195,5.25l-0.902,0.242l-1.559-7.41l-1.629,0.809l-0.188-0.695
			c0.902-0.258,2.121-0.996,2.84-1.578l0.949,4.441c0.172-1.371,0.402-3.648,0.785-4.367c0.25-0.477,0.523-0.625,0.766-0.691
			c0.211-0.055,0.32-0.047,0.32-0.047L184.39,161.102L184.39,161.102z"/>
		<path clip-path="url(#SVGID_2_)" fill="#E63312" d="M188.694,158.867c0.348,0.055,0.582,0.496,0.73,1.07
			c0.172,0.645,0.199,1.438,0.184,1.664c-0.117,1.563-0.891,4.527-1.676,4.734c-0.57,0.156-0.859-0.66-1.031-1.285
			C186.042,161.832,187.718,158.645,188.694,158.867L188.694,158.867z M190.288,164.402c0.762,2.852,1.184,7.004-1.082,7.504
			c-1.273,0.266-1.41-0.801-1.449-0.824l0.699-0.242c-0.219-0.242-0.398-0.641-0.543-1.031c-0.043-0.324-0.09-0.629-0.055-0.898
			l-1.234,0.184c0.133,0.484,0.23,1,0.32,1.477c0.367,1.227,0.891,2.203,2.418,1.793c2.746-0.734,3.215-4.418,2.012-9.332
			l-1.246-5.203l-1.047,0.414c-0.238,0.063-0.449-0.012-0.727,0.063c-1.527,0.336-3.293,4.816-2.609,7.855
			c0.191,0.859,0.719,1.781,1.578,1.59c0.836-0.152,1.559-1.145,1.852-2.211l0.734-2.563L190.288,164.402L190.288,164.402z"/>
		<path clip-path="url(#SVGID_2_)" fill="#E63312" d="M196.175,156.898c0.352,0.055,0.535,0.398,0.652,0.832
			c0.133,0.488,0.184,1.016,0.164,1.242c-0.047,1.766-0.578,4.926-1.82,5.297c-0.609,0.16-0.898-0.359-1.063-0.852
			c0-0.113-0.016-0.184-0.035-0.254C193.53,160.441,195.171,156.684,196.175,156.898L196.175,156.898z M199.413,163.41
			c-0.133,0.074-0.27-0.168-0.465-0.75c-0.316-1.332-0.691-3.988-1.223-6.941l-1.199,0.473c-0.262,0.066-0.438-0.035-0.715,0.039
			c-1.422,0.383-3.414,4.922-2.746,7.969c0.199,0.82,0.664,1.797,1.492,1.613c0.871-0.16,1.688-1.219,2.004-2.328l0.848-2.816
			c0.086,0.313,0.168,0.625,0.238,0.887c0.289,1.059,0.34,1.547,0.512,3.145c0.016,0.07,0.051,0.207,0.121,0.188
			c0.07-0.016,0.105-0.027,0.129-0.07c0.863-0.809,0.984-0.918,2.145-1.523l-0.316-0.348
			C200.038,163.039,199.601,163.285,199.413,163.41L199.413,163.41z"/>
		<path clip-path="url(#SVGID_2_)" fill="#E63312" d="M206.702,162.52c0.023-2.016-0.605-4.832-1.223-7.273
			c-1.34,2.855-2.422,4.934-1.969,8.09l-1.059,0.285l-1.559-7.484l-1.27,0.676l-0.188-0.676c1.027-0.199,1.926-0.813,2.602-1.574
			l0.887,5.688c0.543-2.359,1.309-4.094,2.551-6.402l0.961-0.258l1.555,7.484l1.211-0.492l0.164,0.609
			c-0.93,0.285-1.641,0.758-2.332,1.461L206.702,162.52L206.702,162.52z"/>
		<path clip-path="url(#SVGID_2_)" fill="#E63312" d="M208.569,154.453l-0.168-0.625c1.043-0.41,1.844-0.961,2.77-1.563l1.641,8.578
			l-1.242,0.633c-0.211-2.18-0.668-4.352-1.23-6.453c-0.117-0.434-0.227-0.852-0.332-1.254L208.569,154.453L208.569,154.453z
			 M209.21,148.168c0.539-0.145,1.148,0.234,1.289,0.773c0.156,0.574-0.129,1.246-0.703,1.418c-0.004-0.016-0.035-0.008-0.035-0.008
			c-0.488,0.133-0.984-0.258-1.156-0.754C208.46,149.059,208.624,148.328,209.21,148.168L209.21,148.168z"/>
		<path clip-path="url(#SVGID_2_)" fill="#E63312" d="M213.69,153.695l-0.266-2.035c1.188-0.223,2.383-0.508,3.539-0.777
			c1.293-0.387,2.535-0.754,3.73-1.168l0.258,0.398l-4.547,8.559c1.438-0.199,2.813-0.492,4.176-0.82
			c0.844-0.266,1.652-0.52,2.457-0.773l0.211,0.785c-1.23,0.402-2.492,0.777-3.734,1.148c-1.57,0.387-3.156,0.734-4.785,1.059
			l-0.09-0.328l4.648-8.383l-3.91,1.047c-0.504,0.133-1.25,0.484-1.078,1.125L213.69,153.695L213.69,153.695z"/>
		<path clip-path="url(#SVGID_2_)" fill="#E63312" d="M227.038,148.629c0.352,0.055,0.539,0.398,0.652,0.832
			c0.129,0.488,0.176,1.016,0.168,1.242c-0.051,1.766-0.586,4.926-1.828,5.297c-0.609,0.16-0.895-0.355-1.066-0.852
			c0.012-0.113-0.012-0.184-0.027-0.254C224.39,152.172,226.03,148.414,227.038,148.629L227.038,148.629z M230.272,155.141
			c-0.129,0.074-0.27-0.168-0.461-0.75c-0.32-1.332-0.691-3.988-1.227-6.941l-1.195,0.473c-0.262,0.07-0.438-0.035-0.719,0.043
			c-1.426,0.379-3.41,4.918-2.746,7.965c0.199,0.82,0.668,1.797,1.496,1.613c0.867-0.16,1.688-1.219,2-2.328l0.848-2.816
			c0.09,0.313,0.172,0.625,0.242,0.887c0.281,1.063,0.336,1.547,0.504,3.145c0.023,0.07,0.059,0.207,0.129,0.188
			c0.066-0.016,0.102-0.027,0.129-0.07c0.867-0.809,0.984-0.914,2.141-1.523l-0.313-0.344
			C230.901,154.77,230.464,155.016,230.272,155.141L230.272,155.141z"/>
		<path clip-path="url(#SVGID_2_)" fill="#E63312" d="M230.386,147.977l-0.199-0.75l1.207-0.285l-0.348-1.715l1.234-0.668
			l0.328,2.055l1.836-0.527l0.16,0.723l-1.992,0.512c-0.012,0.098,0.797,3.461,1.176,5c0.32,1.215,0.539,2.031,1.383,1.844
			c0.031-0.043,0.066-0.055,0.066-0.055c0.793-0.289,1.227-1.242,0.824-2.328l0.492-0.129c0.504,1.484-0.168,2.914-1.664,3.316
			c-0.926,0.246-1.73-0.043-1.73-0.043c-0.184-0.547-0.324-1.086-0.516-1.648c-0.402-1.645-0.746-3.473-1.145-5.656L230.386,147.977
			L230.386,147.977z"/>
		<path clip-path="url(#SVGID_2_)" fill="#E63312" d="M236.296,147.023l-0.168-0.625c1.047-0.41,1.848-0.961,2.77-1.563l1.645,8.578
			l-1.246,0.633c-0.211-2.18-0.656-4.352-1.223-6.453c-0.117-0.438-0.23-0.852-0.34-1.254L236.296,147.023L236.296,147.023z
			 M236.94,140.738c0.539-0.145,1.145,0.234,1.289,0.773c0.152,0.574-0.133,1.246-0.699,1.418c-0.008-0.016-0.039-0.008-0.039-0.008
			c-0.484,0.129-0.984-0.258-1.148-0.754C236.194,141.629,236.351,140.898,236.94,140.738L236.94,140.738z"/>
		<path clip-path="url(#SVGID_2_)" fill="#E63312" d="M242.937,149.066c-0.309-1.297-0.844-4.473,0.426-4.887
			c1.355-0.438,2.293,1.457,2.68,2.918c0.02,0.066,0.039,0.137,0.066,0.242c0.469,1.754,0.641,3.984-0.867,4.352
			C243.792,151.969,243.292,150.387,242.937,149.066L242.937,149.066z M241.808,150.207c0.582,2.246,1.469,2.477,2.703,2.293
			c0.102-0.027,0.23-0.059,0.328-0.086c2.887-0.773,3.012-3.715,2.285-6.148c-0.445-1.52-1.414-3.402-2.797-2.996
			C240.89,144.266,241.101,147.434,241.808,150.207L241.808,150.207z"/>
		<path clip-path="url(#SVGID_2_)" fill="#E63312" d="M254.776,149.637c0.016-2.016-0.602-4.832-1.223-7.273
			c-1.344,2.855-2.426,4.934-1.969,8.094l-1.063,0.285l-1.559-7.484l-1.27,0.676l-0.184-0.68c1.027-0.199,1.93-0.813,2.598-1.57
			l0.891,5.688c0.539-2.363,1.305-4.098,2.555-6.406l0.953-0.254l1.559,7.484l1.211-0.492l0.16,0.605
			c-0.93,0.289-1.641,0.758-2.328,1.465L254.776,149.637L254.776,149.637z"/>
	</g>
	<text transform="matrix(0.9743 -0.2253 0.2253 0.9743 267.9365 76.2964)" font-family="'Helvetica'" font-size="12.2331">®</text>
</g>
</svg>
