<?xml version="1.0" encoding="utf-8"?>
<!-- Generator: Adobe Illustrator 14.0.0, SVG Export Plug-In . SVG Version: 6.00 Build 43363)  -->
<!DOCTYPE svg PUBLIC "-//W3C//DTD SVG 1.1//EN" "http://www.w3.org/Graphics/SVG/1.1/DTD/svg11.dtd">
<svg version="1.1" id="Ebene_1" xmlns="http://www.w3.org/2000/svg" xmlns:xlink="http://www.w3.org/1999/xlink" x="0px" y="0px"
	 width="32px" height="32px" viewBox="0 0 32 32" enable-background="new 0 0 32 32" xml:space="preserve">
<path fill="#666666" d="M7.728,12.253c1.125-0.873,2.057-0.272,3.303,1.169c0.14,0.162,0.328-0.027,0.435-0.121
	s1.749-1.57,1.829-1.641c0.08-0.071,0.178-0.202,0.049-0.351c-0.128-0.147-0.595-0.753-0.895-1.144
	c-2.179-2.851,5.96-4.783,4.709-4.814c-0.635-0.016-3.188-0.047-3.569-0.005c-1.547,0.164-3.486,1.608-4.465,2.28
	C7.848,8.505,7.369,9.015,7.289,9.086c-0.36,0.316-0.058,1.046-0.713,1.619c-0.693,0.607-1.125,0.148-1.526,0.501
	c-0.199,0.176-0.755,0.592-0.915,0.731c-0.159,0.142-0.188,0.379-0.025,0.567c0,0,1.521,1.684,1.65,1.831
	c0.129,0.148,0.472,0.274,0.685,0.086c0.213-0.187,0.761-0.667,0.854-0.749C7.393,13.592,7.237,12.633,7.728,12.253 M14.606,12.875
	c-0.145-0.166-0.323-0.171-0.479-0.033l-1.728,1.506c-0.136,0.12-0.154,0.344-0.032,0.482l9.994,11.372
	c0.232,0.271,0.64,0.298,0.904,0.063l1.17-0.979c0.268-0.233,0.295-0.644,0.062-0.912L14.606,12.875z M27.932,8.034
	c-0.089-0.596-0.396-0.469-0.557-0.217s-0.869,1.325-1.16,1.812c-0.291,0.484-1.002,1.437-2.33,0.496
	c-1.385-0.979-0.902-1.66-0.66-2.12c0.24-0.461,0.984-1.754,1.092-1.916c0.108-0.162-0.018-0.636-0.446-0.437
	c-0.431,0.197-3.04,1.234-3.402,2.722c-0.368,1.516,0.312,2.867-1.023,4.211l-1.617,1.688l1.624,1.891l1.994-1.894
	c0.476-0.479,1.488-0.94,2.408-0.732c1.967,0.445,3.041-0.294,3.688-1.517C28.117,10.929,28.021,8.63,27.932,8.034 M7.251,24.497
	c-0.25,0.253-0.25,0.662,0,0.915l1.146,1.119c0.251,0.252,0.647,0.146,0.898-0.105l5.914-5.813l-1.812-2.062L7.251,24.497z"/>
</svg>
