<?xml version="1.0" encoding="utf-8"?>
<!-- Generator: Adobe Illustrator 14.0.0, SVG Export Plug-In . SVG Version: 6.00 Build 43363)  -->
<!DOCTYPE svg PUBLIC "-//W3C//DTD SVG 1.1//EN" "http://www.w3.org/Graphics/SVG/1.1/DTD/svg11.dtd">
<svg version="1.1" id="Ebene_1" xmlns="http://www.w3.org/2000/svg" xmlns:xlink="http://www.w3.org/1999/xlink" x="0px" y="0px"
	 width="32px" height="32px" viewBox="0 0 32 32" enable-background="new 0 0 32 32" xml:space="preserve">
<path fill="#666666" d="M11.352,20.379c-2.345-2.521-2.303-6.475,0.133-8.927c0.996-1.004,2.242-1.604,3.539-1.8L14.951,7.5
	c-1.818,0.221-3.578,1.032-4.973,2.437c-3.264,3.287-3.303,8.592-0.127,11.952l-1.804,1.818l5.711,0.312l-0.016-6.049L11.352,20.379
	z M18.241,7.982l0.016,6.047l2.392-2.407c2.345,2.521,2.304,6.474-0.133,8.927c-0.996,1.004-2.242,1.604-3.539,1.799l0.072,2.152
	c1.818-0.221,3.578-1.031,4.973-2.436c3.264-3.287,3.303-8.594,0.127-11.954l1.805-1.817L18.241,7.982z"/>
</svg>
