<?xml version="1.0" encoding="utf-8"?>
<!-- Generator: Adobe Illustrator 14.0.0, SVG Export Plug-In . SVG Version: 6.00 Build 43363)  -->
<!DOCTYPE svg PUBLIC "-//W3C//DTD SVG 1.1//EN" "http://www.w3.org/Graphics/SVG/1.1/DTD/svg11.dtd">
<svg version="1.1" id="Ebene_1" xmlns="http://www.w3.org/2000/svg" xmlns:xlink="http://www.w3.org/1999/xlink" x="0px" y="0px"
	 width="32px" height="32px" viewBox="0 0 32 32" enable-background="new 0 0 32 32" xml:space="preserve">
<path fill="#666666" d="M16.001,10c-7.029,0-10.714,5.18-10.714,6s3.685,6,10.714,6c7.027,0,10.713-5.18,10.713-6
	S23.029,10,16.001,10 M16.001,20.615c-2.63,0-4.762-2.066-4.762-4.615s2.132-4.615,4.762-4.615c2.629,0,4.762,2.066,4.762,4.615
	S18.63,20.615,16.001,20.615 M16.001,16c-0.438-0.479,0.71-2.309,0-2.309c-1.315,0-2.381,1.035-2.381,2.309s1.064,2.309,2.381,2.309
	c1.313,0,2.381-1.033,2.381-2.309C18.382,15.415,16.372,16.407,16.001,16"/>
</svg>
