<?xml version="1.0" encoding="utf-8"?>
<!-- Generator: Adobe Illustrator 14.0.0, SVG Export Plug-In . SVG Version: 6.00 Build 43363)  -->
<!DOCTYPE svg PUBLIC "-//W3C//DTD SVG 1.1//EN" "http://www.w3.org/Graphics/SVG/1.1/DTD/svg11.dtd">
<svg version="1.1" id="Ebene_1" xmlns="http://www.w3.org/2000/svg" xmlns:xlink="http://www.w3.org/1999/xlink" x="0px" y="0px"
	 width="32px" height="32px" viewBox="0 0 32 32" enable-background="new 0 0 32 32" xml:space="preserve">
<path fill="#666666" d="M22,10.189V7.674c0-0.846-2.686-2.388-6-2.388s-6,1.542-6,2.388v2.517c0,2.292,4.154,4.187,4.154,5.81
	c0,1.623-4.154,3.515-4.154,5.808v2.518c0,0.846,2.686,2.387,6,2.387s6-1.541,6-2.387v-2.518c0-2.293-4.152-4.188-4.152-5.81
	C17.848,14.375,22,12.481,22,10.189 M11.65,7.78c0.746-0.47,2.144-1.159,4.408-1.159c2.267,0,4.293,1.159,4.293,1.159
	c0.151,0.093,0.748,0.411,0.34,0.653C19.793,8.965,18.035,9.525,16,9.525s-3.734-0.617-4.632-1.149
	C10.959,8.134,11.65,7.78,11.65,7.78 M16.537,16c0,1.278,1.066,2.102,2.197,3.2c0.826,0.803,1.957,1.9,1.957,2.609v1.422
	c-1.039-0.518-4.148-1.021-4.148-2.682c0-0.84-1.086-0.84-1.086,0c0,1.658-3.109,2.164-4.148,2.682v-1.422
	c0-0.709,1.131-1.807,1.957-2.609c1.129-1.1,2.196-1.922,2.196-3.2s-1.065-2.102-2.196-3.199c-0.826-0.803-1.957-1.902-1.957-2.61
	l-0.051-1.072c1.1,0.592,2.844,1.156,4.742,1.156c1.9,0,3.65-0.564,4.75-1.156l-0.059,1.071c0,0.708-1.131,1.808-1.957,2.61
	C17.604,13.897,16.537,14.722,16.537,16"/>
</svg>
