<?xml version="1.0" encoding="utf-8"?>
<!-- Generator: Adobe Illustrator 14.0.0, SVG Export Plug-In . SVG Version: 6.00 Build 43363)  -->
<!DOCTYPE svg PUBLIC "-//W3C//DTD SVG 1.1//EN" "http://www.w3.org/Graphics/SVG/1.1/DTD/svg11.dtd">
<svg version="1.1" id="Ebene_1" xmlns="http://www.w3.org/2000/svg" xmlns:xlink="http://www.w3.org/1999/xlink" x="0px" y="0px"
	 width="32px" height="32px" viewBox="0 0 32 32" enable-background="new 0 0 32 32" xml:space="preserve">
<path fill="#666666" d="M16.771,7.5c-4.608,0-8.354,3.691-8.468,8.288H5.756l3.813,4.249l3.812-4.249h-2.96
	c0.111-3.423,2.911-6.163,6.35-6.163c3.51,0,6.354,2.854,6.354,6.375c0,3.521-2.845,6.375-6.354,6.375
	c-1.408,0-2.707-0.459-3.761-1.236l-1.457,1.56c1.438,1.128,3.25,1.802,5.218,1.802c4.68,0,8.474-3.805,8.474-8.5
	C25.244,11.306,21.45,7.5,16.771,7.5"/>
</svg>
