<?xml version="1.0" encoding="utf-8"?>
<!-- Generator: Adobe Illustrator 16.0.0, SVG Export Plug-In . SVG Version: 6.00 Build 0)  -->
<!DOCTYPE svg PUBLIC "-//W3C//DTD SVG 1.1//EN" "http://www.w3.org/Graphics/SVG/1.1/DTD/svg11.dtd">
<svg version="1.1" xmlns="http://www.w3.org/2000/svg" xmlns:xlink="http://www.w3.org/1999/xlink" x="0px" y="0px" width="32px"
	 height="32px" viewBox="0 0 32 32" enable-background="new 0 0 32 32" xml:space="preserve">
<g id="Ebene_1">
	<path fill="#666666" d="M28.8,8H3.199C1.439,8,0,9.439,0,11.199v9.6C0,22.559,1.439,24,3.199,24H28.8c1.761,0,3.2-1.441,3.2-3.201
		v-9.6C32,9.439,30.561,8,28.8,8 M28.8,20.799H3.199v-9.6H28.8V20.799z"/>
</g>
<g id="Ebene_2">
	<path fill="#666666" d="M28.8,8H3.199C1.439,8,0,9.439,0,11.199v9.6C0,22.559,1.439,24,3.199,24H28.8c1.761,0,3.2-1.441,3.2-3.201
		v-9.6C32,9.439,30.561,8,28.8,8 M28.8,20.799H3.199v-9.6H28.8V20.799z M11.199,12.832h-6.4v6.336h6.4V12.832z"/>
</g>
<g id="Ebene_3">
	<path fill="#666666" d="M28.799,8H3.2C1.439,8,0,9.439,0,11.199v9.6C0,22.559,1.439,24,3.2,24h25.599C30.56,24,32,22.559,32,20.799
		v-9.6C32,9.439,30.56,8,28.799,8 M28.799,20.799H3.2v-9.6h25.599V20.799z M19.199,12.832h-6.4v6.336h6.4V12.832z M11.2,12.832h-6.4
		v6.336h6.4V12.832z"/>
</g>
<g id="Ebene_4">
	<path fill="#666666" d="M28.8,8H3.2C1.439,8,0,9.439,0,11.199v9.6C0,22.559,1.439,24,3.2,24h25.6c1.76,0,3.199-1.441,3.199-3.201
		v-9.6C31.999,9.439,30.56,8,28.8,8 M28.8,20.799H3.2v-9.6h25.6V20.799z M19.2,12.832h-6.401v6.336H19.2V12.832z M27.2,12.832h-6.4
		v6.336h6.4V12.832z M11.2,12.832h-6.4v6.336h6.4V12.832z"/>
</g>
</svg>
